<svg xmlns="http://www.w3.org/2000/svg" width="384" height="384" viewBox="0 0 384 384" shape-rendering="crispEdges">
  <title>dog run frame 2</title>
  <desc>Shiba-like dog running pixel art, right-facing.</desc>
  <rect x="168" y="36" width="12" height="12" fill="#1d1d24"/><rect x="180" y="36" width="12" height="12" fill="#1d1d24"/><rect x="144" y="48" width="12" height="12" fill="#1d1d24"/><rect x="156" y="48" width="12" height="12" fill="#1d1d24"/><rect x="168" y="48" width="12" height="12" fill="#1d1d24"/><rect x="180" y="48" width="12" height="12" fill="#1d1d24"/><rect x="192" y="48" width="12" height="12" fill="#1d1d24"/><rect x="204" y="48" width="12" height="12" fill="#1d1d24"/><rect x="216" y="48" width="12" height="12" fill="#1d1d24"/><rect x="132" y="60" width="12" height="12" fill="#1d1d24"/><rect x="144" y="60" width="12" height="12" fill="#1d1d24"/><rect x="156" y="60" width="12" height="12" fill="#1d1d24"/><rect x="168" y="60" width="12" height="12" fill="#1d1d24"/><rect x="180" y="60" width="12" height="12" fill="#1d1d24"/><rect x="192" y="60" width="12" height="12" fill="#1d1d24"/><rect x="204" y="60" width="12" height="12" fill="#1d1d24"/><rect x="216" y="60" width="12" height="12" fill="#1d1d24"/><rect x="228" y="60" width="12" height="12" fill="#1d1d24"/><rect x="240" y="60" width="12" height="12" fill="#1d1d24"/><rect x="120" y="72" width="12" height="12" fill="#1d1d24"/><rect x="132" y="72" width="12" height="12" fill="#1d1d24"/><rect x="144" y="72" width="12" height="12" fill="#1d1d24"/><rect x="156" y="72" width="12" height="12" fill="#1d1d24"/><rect x="168" y="72" width="12" height="12" fill="#1d1d24"/><rect x="180" y="72" width="12" height="12" fill="#1d1d24"/><rect x="192" y="72" width="12" height="12" fill="#1d1d24"/><rect x="204" y="72" width="12" height="12" fill="#1d1d24"/><rect x="216" y="72" width="12" height="12" fill="#1d1d24"/><rect x="228" y="72" width="12" height="12" fill="#1d1d24"/><rect x="240" y="72" width="12" height="12" fill="#1d1d24"/><rect x="252" y="72" width="12" height="12" fill="#1d1d24"/><rect x="108" y="84" width="12" height="12" fill="#1d1d24"/><rect x="120" y="84" width="12" height="12" fill="#1d1d24"/><rect x="132" y="84" width="12" height="12" fill="#1d1d24"/><rect x="144" y="84" width="12" height="12" fill="#1d1d24"/><rect x="156" y="84" width="12" height="12" fill="#c9b08a"/><rect x="168" y="84" width="12" height="12" fill="#e8e8e8"/><rect x="180" y="84" width="12" height="12" fill="#e8e8e8"/><rect x="192" y="84" width="12" height="12" fill="#1d1d24"/><rect x="204" y="84" width="12" height="12" fill="#1d1d24"/><rect x="216" y="84" width="12" height="12" fill="#1d1d24"/><rect x="228" y="84" width="12" height="12" fill="#1d1d24"/><rect x="240" y="84" width="12" height="12" fill="#1d1d24"/><rect x="252" y="84" width="12" height="12" fill="#1d1d24"/><rect x="264" y="84" width="12" height="12" fill="#1d1d24"/><rect x="96" y="96" width="12" height="12" fill="#1d1d24"/><rect x="108" y="96" width="12" height="12" fill="#1d1d24"/><rect x="120" y="96" width="12" height="12" fill="#1d1d24"/><rect x="132" y="96" width="12" height="12" fill="#1d1d24"/><rect x="144" y="96" width="12" height="12" fill="#e8e8e8"/><rect x="156" y="96" width="12" height="12" fill="#e8e8e8"/><rect x="168" y="96" width="12" height="12" fill="#e8e8e8"/><rect x="180" y="96" width="12" height="12" fill="#e8e8e8"/><rect x="192" y="96" width="12" height="12" fill="#c9b08a"/><rect x="204" y="96" width="12" height="12" fill="#1d1d24"/><rect x="216" y="96" width="12" height="12" fill="#1d1d24"/><rect x="228" y="96" width="12" height="12" fill="#1d1d24"/><rect x="240" y="96" width="12" height="12" fill="#1d1d24"/><rect x="252" y="96" width="12" height="12" fill="#1d1d24"/><rect x="264" y="96" width="12" height="12" fill="#1d1d24"/><rect x="276" y="96" width="12" height="12" fill="#1d1d24"/><rect x="96" y="108" width="12" height="12" fill="#1d1d24"/><rect x="108" y="108" width="12" height="12" fill="#1d1d24"/><rect x="120" y="108" width="12" height="12" fill="#1d1d24"/><rect x="132" y="108" width="12" height="12" fill="#1d1d24"/><rect x="144" y="108" width="12" height="12" fill="#e8e8e8"/><rect x="156" y="108" width="12" height="12" fill="#e8e8e8"/><rect x="168" y="108" width="12" height="12" fill="#e8e8e8"/><rect x="180" y="108" width="12" height="12" fill="#e8e8e8"/><rect x="192" y="108" width="12" height="12" fill="#1d1d24"/><rect x="204" y="108" width="12" height="12" fill="#1d1d24"/><rect x="216" y="108" width="12" height="12" fill="#1d1d24"/><rect x="228" y="108" width="12" height="12" fill="#1d1d24"/><rect x="240" y="108" width="12" height="12" fill="#1d1d24"/><rect x="252" y="108" width="12" height="12" fill="#1d1d24"/><rect x="264" y="108" width="12" height="12" fill="#1d1d24"/><rect x="276" y="108" width="12" height="12" fill="#1d1d24"/><rect x="288" y="108" width="12" height="12" fill="#1d1d24"/><rect x="96" y="120" width="12" height="12" fill="#1d1d24"/><rect x="108" y="120" width="12" height="12" fill="#1d1d24"/><rect x="120" y="120" width="12" height="12" fill="#1d1d24"/><rect x="132" y="120" width="12" height="12" fill="#1d1d24"/><rect x="144" y="120" width="12" height="12" fill="#e8e8e8"/><rect x="156" y="120" width="12" height="12" fill="#e8e8e8"/><rect x="168" y="120" width="12" height="12" fill="#e8e8e8"/><rect x="180" y="120" width="12" height="12" fill="#c9b08a"/><rect x="192" y="120" width="12" height="12" fill="#1d1d24"/><rect x="204" y="120" width="12" height="12" fill="#1d1d24"/><rect x="216" y="120" width="12" height="12" fill="#1d1d24"/><rect x="228" y="120" width="12" height="12" fill="#1d1d24"/><rect x="240" y="120" width="12" height="12" fill="#1d1d24"/><rect x="252" y="120" width="12" height="12" fill="#1d1d24"/><rect x="264" y="120" width="12" height="12" fill="#1d1d24"/><rect x="276" y="120" width="12" height="12" fill="#1d1d24"/><rect x="288" y="120" width="12" height="12" fill="#1d1d24"/><rect x="300" y="120" width="12" height="12" fill="#1d1d24"/><rect x="108" y="132" width="12" height="12" fill="#1d1d24"/><rect x="120" y="132" width="12" height="12" fill="#1d1d24"/><rect x="132" y="132" width="12" height="12" fill="#1d1d24"/><rect x="144" y="132" width="12" height="12" fill="#1d1d24"/><rect x="156" y="132" width="12" height="12" fill="#c9b08a"/><rect x="168" y="132" width="12" height="12" fill="#c9b08a"/><rect x="180" y="132" width="12" height="12" fill="#c9b08a"/><rect x="192" y="132" width="12" height="12" fill="#1d1d24"/><rect x="204" y="132" width="12" height="12" fill="#1d1d24"/><rect x="216" y="132" width="12" height="12" fill="#1d1d24"/><rect x="228" y="132" width="12" height="12" fill="#1d1d24"/><rect x="240" y="132" width="12" height="12" fill="#1d1d24"/><rect x="252" y="132" width="12" height="12" fill="#1d1d24"/><rect x="264" y="132" width="12" height="12" fill="#1d1d24"/><rect x="276" y="132" width="12" height="12" fill="#1d1d24"/><rect x="288" y="132" width="12" height="12" fill="#1d1d24"/><rect x="300" y="132" width="12" height="12" fill="#1d1d24"/><rect x="108" y="144" width="12" height="12" fill="#1d1d24"/><rect x="120" y="144" width="12" height="12" fill="#1d1d24"/><rect x="132" y="144" width="12" height="12" fill="#1d1d24"/><rect x="144" y="144" width="12" height="12" fill="#1d1d24"/><rect x="156" y="144" width="12" height="12" fill="#1d1d24"/><rect x="168" y="144" width="12" height="12" fill="#1d1d24"/><rect x="180" y="144" width="12" height="12" fill="#1d1d24"/><rect x="192" y="144" width="12" height="12" fill="#1d1d24"/><rect x="204" y="144" width="12" height="12" fill="#1d1d24"/><rect x="216" y="144" width="12" height="12" fill="#1d1d24"/><rect x="228" y="144" width="12" height="12" fill="#1d1d24"/><rect x="240" y="144" width="12" height="12" fill="#1d1d24"/><rect x="252" y="144" width="12" height="12" fill="#1d1d24"/><rect x="264" y="144" width="12" height="12" fill="#1d1d24"/><rect x="276" y="144" width="12" height="12" fill="#1d1d24"/><rect x="288" y="144" width="12" height="12" fill="#1d1d24"/><rect x="300" y="144" width="12" height="12" fill="#1d1d24"/><rect x="120" y="156" width="12" height="12" fill="#1d1d24"/><rect x="132" y="156" width="12" height="12" fill="#1d1d24"/><rect x="144" y="156" width="12" height="12" fill="#1d1d24"/><rect x="156" y="156" width="12" height="12" fill="#1d1d24"/><rect x="168" y="156" width="12" height="12" fill="#1d1d24"/><rect x="180" y="156" width="12" height="12" fill="#1d1d24"/><rect x="192" y="156" width="12" height="12" fill="#1d1d24"/><rect x="204" y="156" width="12" height="12" fill="#1d1d24"/><rect x="216" y="156" width="12" height="12" fill="#1d1d24"/><rect x="228" y="156" width="12" height="12" fill="#1d1d24"/><rect x="240" y="156" width="12" height="12" fill="#1d1d24"/><rect x="252" y="156" width="12" height="12" fill="#1d1d24"/><rect x="264" y="156" width="12" height="12" fill="#1d1d24"/><rect x="276" y="156" width="12" height="12" fill="#1d1d24"/><rect x="288" y="156" width="12" height="12" fill="#1d1d24"/><rect x="300" y="156" width="12" height="12" fill="#1d1d24"/><rect x="312" y="156" width="12" height="12" fill="#1d1d24"/><rect x="144" y="168" width="12" height="12" fill="#1d1d24"/><rect x="156" y="168" width="12" height="12" fill="#1d1d24"/><rect x="168" y="168" width="12" height="12" fill="#1d1d24"/><rect x="180" y="168" width="12" height="12" fill="#1d1d24"/><rect x="192" y="168" width="12" height="12" fill="#1d1d24"/><rect x="204" y="168" width="12" height="12" fill="#1d1d24"/><rect x="216" y="168" width="12" height="12" fill="#1d1d24"/><rect x="228" y="168" width="12" height="12" fill="#1d1d24"/><rect x="240" y="168" width="12" height="12" fill="#1d1d24"/><rect x="252" y="168" width="12" height="12" fill="#1d1d24"/><rect x="264" y="168" width="12" height="12" fill="#1d1d24"/><rect x="276" y="168" width="12" height="12" fill="#1d1d24"/><rect x="288" y="168" width="12" height="12" fill="#1d1d24"/><rect x="300" y="168" width="12" height="12" fill="#1d1d24"/><rect x="312" y="168" width="12" height="12" fill="#1d1d24"/><rect x="168" y="180" width="12" height="12" fill="#1d1d24"/><rect x="180" y="180" width="12" height="12" fill="#1d1d24"/><rect x="192" y="180" width="12" height="12" fill="#1d1d24"/><rect x="204" y="180" width="12" height="12" fill="#1d1d24"/><rect x="216" y="180" width="12" height="12" fill="#1d1d24"/><rect x="228" y="180" width="12" height="12" fill="#1d1d24"/><rect x="240" y="180" width="12" height="12" fill="#1d1d24"/><rect x="252" y="180" width="12" height="12" fill="#1d1d24"/><rect x="264" y="180" width="12" height="12" fill="#1d1d24"/><rect x="276" y="180" width="12" height="12" fill="#1d1d24"/><rect x="288" y="180" width="12" height="12" fill="#1d1d24"/><rect x="300" y="180" width="12" height="12" fill="#1d1d24"/><rect x="156" y="192" width="12" height="12" fill="#1d1d24"/><rect x="168" y="192" width="12" height="12" fill="#1d1d24"/><rect x="180" y="192" width="12" height="12" fill="#1d1d24"/><rect x="192" y="192" width="12" height="12" fill="#1d1d24"/><rect x="204" y="192" width="12" height="12" fill="#1d1d24"/><rect x="216" y="192" width="12" height="12" fill="#1d1d24"/><rect x="228" y="192" width="12" height="12" fill="#1d1d24"/><rect x="240" y="192" width="12" height="12" fill="#1d1d24"/><rect x="252" y="192" width="12" height="12" fill="#1d1d24"/><rect x="264" y="192" width="12" height="12" fill="#1d1d24"/><rect x="276" y="192" width="12" height="12" fill="#1d1d24"/><rect x="288" y="192" width="12" height="12" fill="#1d1d24"/><rect x="132" y="204" width="12" height="12" fill="#1d1d24"/><rect x="144" y="204" width="12" height="12" fill="#1d1d24"/><rect x="156" y="204" width="12" height="12" fill="#1d1d24"/><rect x="168" y="204" width="12" height="12" fill="#1d1d24"/><rect x="180" y="204" width="12" height="12" fill="#1d1d24"/><rect x="192" y="204" width="12" height="12" fill="#1d1d24"/><rect x="204" y="204" width="12" height="12" fill="#1d1d24"/><rect x="216" y="204" width="12" height="12" fill="#1d1d24"/><rect x="228" y="204" width="12" height="12" fill="#1d1d24"/><rect x="240" y="204" width="12" height="12" fill="#1d1d24"/><rect x="252" y="204" width="12" height="12" fill="#1d1d24"/><rect x="264" y="204" width="12" height="12" fill="#1d1d24"/><rect x="276" y="204" width="12" height="12" fill="#1d1d24"/><rect x="288" y="204" width="12" height="12" fill="#1d1d24"/><rect x="108" y="216" width="12" height="12" fill="#1d1d24"/><rect x="120" y="216" width="12" height="12" fill="#1d1d24"/><rect x="132" y="216" width="12" height="12" fill="#1d1d24"/><rect x="144" y="216" width="12" height="12" fill="#1d1d24"/><rect x="156" y="216" width="12" height="12" fill="#1d1d24"/><rect x="168" y="216" width="12" height="12" fill="#1d1d24"/><rect x="180" y="216" width="12" height="12" fill="#1d1d24"/><rect x="192" y="216" width="12" height="12" fill="#1d1d24"/><rect x="204" y="216" width="12" height="12" fill="#1d1d24"/><rect x="216" y="216" width="12" height="12" fill="#1d1d24"/><rect x="228" y="216" width="12" height="12" fill="#1d1d24"/><rect x="240" y="216" width="12" height="12" fill="#1d1d24"/><rect x="252" y="216" width="12" height="12" fill="#1d1d24"/><rect x="264" y="216" width="12" height="12" fill="#1d1d24"/><rect x="276" y="216" width="12" height="12" fill="#1d1d24"/><rect x="288" y="216" width="12" height="12" fill="#1d1d24"/><rect x="96" y="228" width="12" height="12" fill="#1d1d24"/><rect x="108" y="228" width="12" height="12" fill="#1d1d24"/><rect x="120" y="228" width="12" height="12" fill="#1d1d24"/><rect x="132" y="228" width="12" height="12" fill="#1d1d24"/><rect x="144" y="228" width="12" height="12" fill="#1d1d24"/><rect x="156" y="228" width="12" height="12" fill="#1d1d24"/><rect x="168" y="228" width="12" height="12" fill="#1d1d24"/><rect x="180" y="228" width="12" height="12" fill="#1d1d24"/><rect x="192" y="228" width="12" height="12" fill="#1d1d24"/><rect x="204" y="228" width="12" height="12" fill="#1d1d24"/><rect x="216" y="228" width="12" height="12" fill="#1d1d24"/><rect x="228" y="228" width="12" height="12" fill="#1d1d24"/><rect x="240" y="228" width="12" height="12" fill="#1d1d24"/><rect x="252" y="228" width="12" height="12" fill="#1d1d24"/><rect x="264" y="228" width="12" height="12" fill="#1d1d24"/><rect x="276" y="228" width="12" height="12" fill="#1d1d24"/><rect x="288" y="228" width="12" height="12" fill="#1d1d24"/><rect x="84" y="240" width="12" height="12" fill="#1d1d24"/><rect x="96" y="240" width="12" height="12" fill="#1d1d24"/><rect x="108" y="240" width="12" height="12" fill="#1d1d24"/><rect x="120" y="240" width="12" height="12" fill="#1d1d24"/><rect x="132" y="240" width="12" height="12" fill="#1d1d24"/><rect x="144" y="240" width="12" height="12" fill="#1d1d24"/><rect x="156" y="240" width="12" height="12" fill="#1d1d24"/><rect x="168" y="240" width="12" height="12" fill="#1d1d24"/><rect x="180" y="240" width="12" height="12" fill="#1d1d24"/><rect x="192" y="240" width="12" height="12" fill="#1d1d24"/><rect x="204" y="240" width="12" height="12" fill="#1d1d24"/><rect x="216" y="240" width="12" height="12" fill="#1d1d24"/><rect x="228" y="240" width="12" height="12" fill="#1d1d24"/><rect x="240" y="240" width="12" height="12" fill="#1d1d24"/><rect x="252" y="240" width="12" height="12" fill="#1d1d24"/><rect x="264" y="240" width="12" height="12" fill="#1d1d24"/><rect x="276" y="240" width="12" height="12" fill="#1d1d24"/><rect x="72" y="252" width="12" height="12" fill="#1d1d24"/><rect x="84" y="252" width="12" height="12" fill="#1d1d24"/><rect x="96" y="252" width="12" height="12" fill="#1d1d24"/><rect x="108" y="252" width="12" height="12" fill="#1d1d24"/><rect x="120" y="252" width="12" height="12" fill="#1d1d24"/><rect x="132" y="252" width="12" height="12" fill="#1d1d24"/><rect x="144" y="252" width="12" height="12" fill="#1d1d24"/><rect x="156" y="252" width="12" height="12" fill="#1d1d24"/><rect x="168" y="252" width="12" height="12" fill="#1d1d24"/><rect x="180" y="252" width="12" height="12" fill="#1d1d24"/><rect x="192" y="252" width="12" height="12" fill="#1d1d24"/><rect x="204" y="252" width="12" height="12" fill="#1d1d24"/><rect x="216" y="252" width="12" height="12" fill="#1d1d24"/><rect x="228" y="252" width="12" height="12" fill="#1d1d24"/><rect x="240" y="252" width="12" height="12" fill="#1d1d24"/><rect x="252" y="252" width="12" height="12" fill="#1d1d24"/><rect x="264" y="252" width="12" height="12" fill="#1d1d24"/><rect x="72" y="264" width="12" height="12" fill="#1d1d24"/><rect x="84" y="264" width="12" height="12" fill="#1d1d24"/><rect x="96" y="264" width="12" height="12" fill="#1d1d24"/><rect x="108" y="264" width="12" height="12" fill="#1d1d24"/><rect x="120" y="264" width="12" height="12" fill="#1d1d24"/><rect x="132" y="264" width="12" height="12" fill="#1d1d24"/><rect x="144" y="264" width="12" height="12" fill="#1d1d24"/><rect x="156" y="264" width="12" height="12" fill="#1d1d24"/><rect x="168" y="264" width="12" height="12" fill="#1d1d24"/><rect x="180" y="264" width="12" height="12" fill="#1d1d24"/><rect x="192" y="264" width="12" height="12" fill="#1d1d24"/><rect x="204" y="264" width="12" height="12" fill="#1d1d24"/><rect x="216" y="264" width="12" height="12" fill="#1d1d24"/><rect x="228" y="264" width="12" height="12" fill="#1d1d24"/><rect x="240" y="264" width="12" height="12" fill="#1d1d24"/><rect x="96" y="276" width="12" height="12" fill="#c9b08a"/><rect x="108" y="276" width="12" height="12" fill="#c9b08a"/><rect x="120" y="276" width="12" height="12" fill="#1d1d24"/><rect x="132" y="276" width="12" height="12" fill="#1d1d24"/><rect x="144" y="276" width="12" height="12" fill="#1d1d24"/><rect x="156" y="276" width="12" height="12" fill="#1d1d24"/><rect x="168" y="276" width="12" height="12" fill="#1d1d24"/><rect x="180" y="276" width="12" height="12" fill="#1d1d24"/><rect x="192" y="276" width="12" height="12" fill="#1d1d24"/><rect x="204" y="276" width="12" height="12" fill="#c9b08a"/><rect x="216" y="276" width="12" height="12" fill="#c9b08a"/><rect x="84" y="288" width="12" height="12" fill="#c9b08a"/><rect x="96" y="288" width="12" height="12" fill="#c9b08a"/><rect x="120" y="288" width="12" height="12" fill="#1d1d24"/><rect x="132" y="288" width="12" height="12" fill="#1d1d24"/><rect x="144" y="288" width="12" height="12" fill="#1d1d24"/><rect x="156" y="288" width="12" height="12" fill="#1d1d24"/><rect x="168" y="288" width="12" height="12" fill="#1d1d24"/><rect x="180" y="288" width="12" height="12" fill="#1d1d24"/><rect x="216" y="288" width="12" height="12" fill="#c9b08a"/><rect x="228" y="288" width="12" height="12" fill="#c9b08a"/><rect x="72" y="300" width="12" height="12" fill="#c9b08a"/><rect x="84" y="300" width="12" height="12" fill="#c9b08a"/><rect x="120" y="300" width="12" height="12" fill="#1d1d24"/><rect x="132" y="300" width="12" height="12" fill="#1d1d24"/><rect x="144" y="300" width="12" height="12" fill="#1d1d24"/><rect x="156" y="300" width="12" height="12" fill="#1d1d24"/><rect x="216" y="300" width="12" height="12" fill="#c9b08a"/><rect x="228" y="300" width="12" height="12" fill="#c9b08a"/><rect x="120" y="312" width="12" height="12" fill="#1d1d24"/><rect x="132" y="312" width="12" height="12" fill="#1d1d24"/><rect x="144" y="312" width="12" height="12" fill="#1d1d24"/><rect x="156" y="312" width="12" height="12" fill="#1d1d24"/><rect x="120" y="324" width="12" height="12" fill="#1d1d24"/><rect x="132" y="324" width="12" height="12" fill="#1d1d24"/><rect x="144" y="324" width="12" height="12" fill="#1d1d24"/><rect x="156" y="324" width="12" height="12" fill="#1d1d24"/><rect x="168" y="324" width="12" height="12" fill="#c9b08a"/><rect x="180" y="324" width="12" height="12" fill="#c9b08a"/><rect x="108" y="336" width="12" height="12" fill="#c9b08a"/><rect x="120" y="336" width="12" height="12" fill="#c9b08a"/><rect x="180" y="336" width="12" height="12" fill="#c9b08a"/><rect x="192" y="336" width="12" height="12" fill="#c9b08a"/><rect x="96" y="348" width="12" height="12" fill="#c9b08a"/><rect x="108" y="348" width="12" height="12" fill="#c9b08a"/>
</svg>